<svg width="34" height="34" viewBox="0 0 34 34" fill="none" xmlns="http://www.w3.org/2000/svg">
<g filter="url(#filter0_dd_932_2270)">
<path fill-rule="evenodd" clip-rule="evenodd" d="M32.2625 12.463C32.3444 12.8243 32.0637 13.1597 31.6933 13.1597H25.9438C24.7036 9.20076 21.0066 6.32829 16.6387 6.32829C12.2708 6.32829 8.57374 9.20076 7.33357 13.1597H1.58355C1.21316 13.1597 0.932391 12.8243 1.01429 12.463C2.63221 5.32729 9.01318 0 16.6384 0C24.2636 0 30.6446 5.32729 32.2625 12.463ZM7.29862 18.8814C7.03244 17.9934 6.88943 17.0522 6.88943 16.0776C6.88943 15.0611 7.04498 14.081 7.33357 13.1597H25.9438C26.2324 14.081 26.3879 15.0611 26.3879 16.0776C26.3879 17.0522 26.2449 17.9934 25.9788 18.8814H7.29862ZM16.078 26.3725C16.078 26.0574 15.8313 25.799 15.5182 25.7632C11.6072 25.3156 8.39949 22.5539 7.29862 18.8814H1.58355C1.21316 18.8814 0.932391 19.2168 1.01429 19.5781C2.54837 26.344 8.36465 31.4841 15.4635 31.9987C15.7988 32.023 16.078 31.7527 16.078 31.4165V26.3725ZM25.9788 18.8814C25.9788 18.8814 25.9787 18.8814 25.9788 18.8814H31.6933C31.6959 18.8814 31.6985 18.8814 31.7011 18.8814H25.9788Z" fill="#D3F674"/>
</g>
<defs>
<filter id="filter0_dd_932_2270" x="0.263188" y="0" width="32.751" height="33.4739" filterUnits="userSpaceOnUse" color-interpolation-filters="sRGB">
<feFlood flood-opacity="0" result="BackgroundImageFix"/>
<feColorMatrix in="SourceAlpha" type="matrix" values="0 0 0 0 0 0 0 0 0 0 0 0 0 0 0 0 0 0 127 0" result="hardAlpha"/>
<feOffset dy="0.736812"/>
<feGaussianBlur stdDeviation="0.368406"/>
<feComposite in2="hardAlpha" operator="out"/>
<feColorMatrix type="matrix" values="0 0 0 0 0 0 0 0 0 0 0 0 0 0 0 0 0 0 0.25 0"/>
<feBlend mode="normal" in2="BackgroundImageFix" result="effect1_dropShadow_932_2270"/>
<feColorMatrix in="SourceAlpha" type="matrix" values="0 0 0 0 0 0 0 0 0 0 0 0 0 0 0 0 0 0 127 0" result="hardAlpha"/>
<feOffset dy="0.650823"/>
<feGaussianBlur stdDeviation="0.113894"/>
<feComposite in2="hardAlpha" operator="out"/>
<feColorMatrix type="matrix" values="0 0 0 0 0 0 0 0 0 0 0 0 0 0 0 0 0 0 0.1 0"/>
<feBlend mode="normal" in2="effect1_dropShadow_932_2270" result="effect2_dropShadow_932_2270"/>
<feBlend mode="normal" in="SourceGraphic" in2="effect2_dropShadow_932_2270" result="shape"/>
</filter>
</defs>
</svg>